<?xml version="1.0" standalone="no"?>
<!DOCTYPE svg PUBLIC "-//W3C//DTD SVG 1.1//EN" "http://www.w3.org/Graphics/SVG/1.1/DTD/svg11.dtd" >
<svg xmlns="http://www.w3.org/2000/svg">
<metadata>
Created by FontForge 20120731 at Tue Feb 14 17:56:46 2017
 By admin
</metadata>
<defs>
<font id="iconfont" horiz-adv-x="1024" >
  <font-face 
    font-family="iconfont"
    font-weight="500"
    font-stretch="normal"
    units-per-em="1024"
    panose-1="2 0 6 3 0 0 0 0 0 0"
    ascent="896"
    descent="-128"
    x-height="792"
    bbox="0 -212 1216 896"
    underline-thickness="0"
    underline-position="0"
    unicode-range="U+0078-E6C8"
  />
<missing-glyph 
 />
    <glyph glyph-name=".notdef" 
 />
    <glyph glyph-name=".notdef" 
 />
    <glyph glyph-name=".null" horiz-adv-x="0" 
 />
    <glyph glyph-name="nonmarkingreturn" horiz-adv-x="341" 
 />
    <glyph glyph-name="x" unicode="x" horiz-adv-x="1001" 
d="M281 543q-27 -1 -53 -1h-83q-18 0 -36.5 -6t-32.5 -18.5t-23 -32t-9 -45.5v-76h912v41q0 16 -0.5 30t-0.5 18q0 13 -5 29t-17 29.5t-31.5 22.5t-49.5 9h-133v-97h-438v97zM955 310v-52q0 -23 0.5 -52t0.5 -58t-10.5 -47.5t-26 -30t-33 -16t-31.5 -4.5q-14 -1 -29.5 -0.5
t-29.5 0.5h-32l-45 128h-439l-44 -128h-29h-34q-20 0 -45 1q-25 0 -41 9.5t-25.5 23t-13.5 29.5t-4 30v167h911zM163 247q-12 0 -21 -8.5t-9 -21.5t9 -21.5t21 -8.5q13 0 22 8.5t9 21.5t-9 21.5t-22 8.5zM316 123q-8 -26 -14 -48q-5 -19 -10.5 -37t-7.5 -25t-3 -15t1 -14.5
t9.5 -10.5t21.5 -4h37h67h81h80h64h36q23 0 34 12t2 38q-5 13 -9.5 30.5t-9.5 34.5q-5 19 -11 39h-368zM336 498v228q0 11 2.5 23t10 21.5t20.5 15.5t34 6h188q31 0 51.5 -14.5t20.5 -52.5v-227h-327z" />
    <glyph glyph-name="gouwuche" unicode="&#xe608;" 
d="M920 686h-679l-12 97q-1 12 -10.5 20t-21.5 8h-7q-4 0 -7 -1h-83q-15 0 -25 -9t-10 -22.5t10 -22.5t25 -9h69l67 -548q1 -12 10.5 -20.5t21.5 -8.5h7q4 0 7 1h549q15 0 25 9.5t10 22.5t-10 22.5t-25 9.5h-535l-8 67h545q12 0 22.5 8t12.5 20l74 327q3 12 -3.5 20.5
t-18.5 8.5zM295 30q0 -32 22.5 -54.5t54.5 -22.5t55 22.5t23 54.5t-23 55t-55 23t-54.5 -23t-22.5 -55zM679 30q0 -32 22.5 -54.5t54.5 -22.5t55 22.5t23 54.5t-23 55t-55 23t-54.5 -23t-22.5 -55z" />
    <glyph glyph-name="check" unicode="&#xe627;" 
d="M512 812q-104 0 -199 -40.5t-163.5 -109t-109 -163.5t-40.5 -199t40.5 -199t109 -163.5t163.5 -109t199 -40.5t199 40.5t163.5 109t109 163.5t40.5 199t-40.5 199t-109 163.5t-163.5 109t-199 40.5zM440 40l-296 296l79 79l217 -216l361 361l79 -79z" />
    <glyph glyph-name="shanchu" unicode="&#xe61b;" 
d="M351 437h41v-445h-41v445zM486 437h41v-445h-41v445zM621 437h41v-445h-41v445zM819 516h59l-59 61v0v0v0v0h-123v69l-58 67h-259l-63 -67v-69h-113v0l-59 -61h59v0h26v-639h556v639h34v0zM347 634l45 49h232l41 -49v-57h-318v57zM754 -92h-494v608h494v-608z" />
    <glyph glyph-name="dingdan" unicode="&#xe60f;" 
d="M537.5 590q40.5 0 68.5 29.5t28 70.5q0 47 -35 77q3 -11 3 -20q0 -28 -19.5 -48t-46.5 -20t-46.5 20t-19.5 48q0 8 2 16q-31 -29 -31 -73q0 -41 28 -70.5t68.5 -29.5zM534.5 718q26.5 0 45.5 19.5t19 47t-19 47t-45.5 19.5t-45.5 -19.5t-19 -47t19 -47t45.5 -19.5z
M79 122l156 -63q-6 12 -21.5 116t-29 203t-12.5 98zM712 -83l10 153l-349 -36zM818 759l-170 -26q16 -30 16 -64q0 -54 -37 -92t-89.5 -38t-89.5 38t-37 92q0 14 2 28l-209 -31q4 -90 29.5 -246t44.5 -246.5t24 -111.5l651 114q-20 21 -54 168t-57.5 278t-23.5 137zM327 440
l277 41l9 -31l-277 -41zM387 206l-10 35l341 50l10 -35zM366 307l-13 35l439 60l13 -35z" />
    <glyph glyph-name="error" unicode="&#xe62c;" 
d="M809 661l60 -59l-301 -300l301 -301l-60 -59l-300 300l-300 -300l-60 59l300 301l-300 300l60 59l300 -300z" />
    <glyph glyph-name="iconfontup" unicode="&#xe621;" 
d="M472 624l-399 -400q-17 -16 -17 -39.5t16.5 -40t40 -16.5t40.5 16l359 360l359 -360q17 -16 40.5 -16t40 16.5t16.5 40t-17 39.5l-399 400q-17 16 -40 16t-40 -16z" />
    <glyph glyph-name="iconfontdown" unicode="&#xe622;" 
d="M472 144l-399 400q-17 16 -17 39.5t16.5 40t40 16.5t40.5 -16l359 -360l359 360q17 16 40.5 16t40 -16.5t16.5 -40t-17 -39.5l-399 -400q-17 -16 -40 -16t-40 16z" />
    <glyph glyph-name="back" unicode="&#xe616;" 
d="M832 332h-563l256 256q9 10 9 22.5t-9.5 22t-22 9.5t-22.5 -9l-314 -307q-9 -10 -9 -23t9 -22l308 -307q6 -7 25 -7t26 7q9 9 9 22t-9 22l-256 256h563q14 0 23 9t9 23q0 26 -32 26z" />
    <glyph glyph-name="shezhi" unicode="&#xe630;" 
d="M514 -82q-56 0 -91 15q-11 5 -11 16q-1 7 -1 22l-3 42q0 8 -2 10q-7 3 -23 8q-15 5 -22 9q-5 2 -13 6q-9 5 -13 6q-6 2 -22 -14l-8 -8l-29 -25q-10 -9 -22 -2q-26 16 -48.5 35.5t-35.5 34t-23 30t-13 21t-5 9.5q-4 11 4 19l27 31q3 2 7 7q8 9 12 13q1 4 -3 13q-1 3 -4 10
q-5 10 -7.5 15.5t-5.5 16.5q-6 22 -11 23q-16 5 -50 6q-14 0 -22 1q-13 1 -16 14q-8 30 -10 59.5t-1 49t5 37.5t6 24t3 10q5 11 16 11l75 4q12 38 33 73l-52 59q-9 10 -2 21q16 27 35.5 49.5t34 35.5t30 23t21.5 13t9 4q11 5 19 -3l60 -54q31 16 66 26l4 81q0 12 11 16
q3 2 9.5 4t24.5 5.5t37.5 5t49 -1t59.5 -9.5q13 -3 14 -17l5 -85q35 -11 68 -28l62 57q9 8 20 3q3 -1 9 -4t21.5 -13t30 -23t34 -35.5t35.5 -49.5q6 -11 -2 -21l-58 -65q18 -32 29 -67l85 -4q11 0 16 -11q1 -4 3 -10t6 -24t5 -37.5t-1 -49t-10 -59.5q-3 -13 -17 -14l-83 -6
q-10 -36 -27 -70l54 -60q8 -8 3.5 -18.5t-14.5 -26.5q-4 -6 -11.5 -7.5t-13.5 2.5t-7.5 11.5t2.5 13.5l6 10l-55 60q-9 10 -3 22q23 39 34 85q3 13 16 14l84 5q15 74 -2 134l-85 4q-13 1 -17 14q-12 43 -35 82q-7 11 2 21l57 65q-41 63 -95 93l-64 -57q-9 -9 -21 -2
q-39 22 -83 34q-12 3 -13 17l-6 84q-73 16 -134 -1l-4 -82q0 -13 -13 -17q-44 -11 -82 -32q-12 -6 -21 3l-60 53q-54 -30 -95 -93l51 -58q9 -11 2 -22q-26 -42 -39 -89q-4 -12 -17 -13l-75 -4q-17 -60 -2 -133q2 0 7 -1q39 -1 59 -7q12 -3 20 -12.5t10.5 -16.5t5.5 -19
q3 -9 4 -13l7 -14q3 -7 5 -10q13 -32 -3 -51q-4 -5 -13 -15q-4 -5 -7 -7l-19 -21q31 -54 94 -95l18 16q3 2 7 6q33 33 60 23q7 -3 18 -9q7 -4 10 -5q6 -3 19 -7q19 -6 28 -11q21 -11 23 -40q1 -14 2 -43q0 -6 1 -9q60 -16 133 -1l5 77q1 13 14 16q49 13 92 40q12 8 22 -1
l59 -52q1 1 3 2q34 25 99 26v0q8 0 13 -5.5t5.5 -13t-5 -13t-12.5 -5.5q-23 0 -43 -5t-26.5 -8.5t-8.5 -5.5h-1q-8 -6 -17 -11q-11 -7 -21 2l-59 52q-37 -21 -78 -33l-5 -78q-1 -13 -14 -16q-45 -12 -89 -12zM517.5 159q-94.5 0 -161.5 67t-67 161.5t67 161t161.5 66.5
t161.5 -66.5t67 -161t-67 -161.5t-161.5 -67zM517.5 579q-79.5 0 -135.5 -56.5t-56 -135.5t56 -135t135.5 -56t135.5 56t56 135t-56 135.5t-135.5 56.5z" />
    <glyph glyph-name="youhui" unicode="&#xe606;" 
d="M387 486q4 -17 9 -26.5t11.5 -13.5t15.5 -2q13 4 15 16.5t-4 38.5l-3 9q-5 17 -12 25q-8 9 -21 6q-9 -2 -12.5 -9t-3.5 -17q0 -1 0.5 -2.5t0.5 -2.5q1 -10 4 -22zM625 366q8 -10 21.5 -6.5t15.5 16.5t-4 38q-7 23 -15 33t-21 6q-9 -2 -13 -8.5t-3.5 -17t4.5 -26.5
q7 -25 15 -35zM889 404q-16 -31 -44 -53l7 -29q8 -31 -8.5 -58.5t-47.5 -36.5l-529 -136q-6 -1 -14 -2v-12q0 -12 8.5 -21t21.5 -9h546q13 0 21.5 9t8.5 21v65q49 9 76.5 44.5t27.5 90.5q0 46 -19.5 79t-54.5 48zM255 138l529 136q12 3 18.5 13.5t3.5 23.5l-16 63
q59 27 69 88q6 32 -3 68q-2 7 -4 13q0 1 -0.5 2.5l-0.5 1.5q-2 5 -3 8l-2 4q-2 5 -3 7q-1 1 -3 5t-3 5t-3 4.5t-3 5.5t-3 4q-3 3 -4.5 5t-3.5 4l-4 4l-3 3t-5 4q-2 2 -4 3q-2 2 -4.5 3.5t-4 2.5l-4.5 3q-2 1 -5 2q-1 1 -5 2q-3 2 -4 2l-6 2l-4.5 1.5t-5.5 1.5t-5 1t-6 1
h-2.5h-2.5t-7 1h-1.5h-2.5q-6 0 -12 -1l-16 64q-1 2 -2 5l-0.5 0.5l-0.5 0.5l-2 4l-1 1.5t-2 2.5t-2 1q-1 1 -2.5 2l-1.5 1l-4 2q-1 0 -1 0.5v0.5q-3 1 -6 1h-0.5h-0.5h-4q-4 0 -7 -1l-529 -136q-12 -3 -18.5 -13.5t-3.5 -23.5l16 -63q-45 -20 -62.5 -61.5t-4.5 -95.5l4 -12
q0 -1 0.5 -2.5t1.5 -1.5q1 -6 3 -8l1 -5q3 -5 4 -6q0 -2 2 -5q3 -5 3 -6q1 -1 2 -2.5l1 -1.5q2 -4 4 -6l3 -3q2 -4 4 -5q1 -2 3 -4q2 -3 4 -4l4 -4t4 -3q2 -2 4 -3q2 -2 5 -4q1 -1 3.5 -2.5t5.5 -2.5l4 -2t5 -3q3 -1 5 -2q2 0 5 -1t4 -1l0.5 -0.5l0.5 -0.5q1 0 6 -1l4 -1
q3 -1 7 -1q1 0 2.5 -0.5l1.5 -0.5h9h3h12l16 -63q1 -2 2 -5l0.5 -0.5t0.5 -1t1 -1.5q0 -1 0.5 -1.5l1.5 -1.5q1 -2 3 -3q0 -1 1 -1q1 -1 3 -2q0 -1 0.5 -1h1.5q1 -2 3 -2q1 0 1 -0.5v-0.5q3 -1 6 -1h0.5h0.5h4h5h1t1 1v0zM642 478.5q12 -1.5 22 -8.5t17 -19.5t12 -29.5
q9 -36 -2.5 -57t-38.5 -28q-16 -4 -31.5 0t-27 17.5t-16.5 35.5q-10 36 -0.5 58t39.5 29q14 4 26 2.5zM555 592q3 8 5 12t7.5 5.5t10 -1t5.5 -7.5q1 -4 -3 -17l-90 -288q-3 -11 -11 -13q-4 -1 -9 1t-7 7q-1 4 2 10zM349 516q1 17 12 29t31 17q14 3 26 1.5t22 -8.5t17 -19
q6 -11 11 -28l0.5 -1l0.5 -1q9 -36 -2 -57t-38 -28q-17 -4 -32 0t-26.5 17.5t-17.5 35.5q-5 19 -5 34q0 5 1 8zM232 384.5q4 6.5 16 9.5l49 13q12 3 19 -1t9 -12.5t-2.5 -15t-15.5 -9.5l-49 -13q-12 -2 -19 1.5t-9 12t2 15z" />
    <glyph glyph-name="fold" unicode="&#xe623;" 
d="M942 169.5q-9 -9.5 -21.5 -10t-21.5 7.5l-370 370q-11 12 -17 12t-18 -12l-370 -370q-8 -8 -21 -7.5t-22 10t-9.5 22t8.5 21.5l411 411q7 7 18 8h5q12 -1 19 -8l411 -411q8 -9 7.5 -21.5t-9.5 -22z" />
    <glyph glyph-name="unfold" unicode="&#xe624;" 
d="M942 577.5q-9 9.5 -21.5 10t-21.5 -7.5l-370 -370q-11 -12 -17 -12t-18 12l-370 370q-8 8 -21 7.5t-22 -10t-9.5 -22t8.5 -21.5l411 -411q7 -7 18 -8h5q12 1 19 8l411 411q8 9 7.5 21.5t-9.5 22z" />
    <glyph glyph-name="back1" unicode="&#xe625;" 
d="M877 404zM758.5 -54.5q9.5 9.5 10 22.5t-7.5 22l-377 376q-12 12 -12 18t12 18l377 376q8 9 7.5 22t-10 22t-22.5 9.5t-22 -7.5l-418 -419q-7 -7 -8 -18v-6q1 -11 8 -18l418 -419q9 -8 22 -8t22.5 9.5z" />
    <glyph glyph-name="right" unicode="&#xe626;" 
d="M877 404zM298 -54.5q-9 9.5 -10 22.5t8 22l376 376q12 12 12 18t-12 18l-376 376q-9 9 -8 22t10 22t22.5 9.5t21.5 -7.5l419 -419q7 -7 7 -18v-6q0 -11 -7 -18l-419 -419q-8 -8 -21.5 -8t-22.5 9.5z" />
    <glyph glyph-name="cuowu" unicode="&#xe61c;" 
d="M154 738l796 -796l-80 -80l-796 796zM870 738l80 -80l-796 -796l-80 80z" />
    <glyph glyph-name="xiaolian" unicode="&#xe61a;" 
d="M880 418h-2h-2q-30 103 -110 173q-76 67 -173.5 86.5t-192 -11.5t-161.5 -107q-54 -61 -78 -141h-1.5h-2.5q-38 0 -65.5 -27t-27.5 -66t27 -66q26 -26 64 -27q26 -120 117 -200q76 -67 173.5 -86.5t191.5 12t161 107.5q65 72 85 167q37 1 63 27q27 27 27 66t-27 66
t-66 27zM149 264q-21 3 -35 17q-18 19 -18 44q0 24 16.5 42t40.5 19q-12 -60 -4 -122zM857 268q0 -2 -2 -16q-3 -13 -3 -16q-19 -85 -77 -150q-62 -70 -148 -98.5t-175.5 -11t-158.5 79.5q-83 72 -107 181l-3 15q-1 6 -3 16q-7 57 5 112q1 8 3 16q2 7 4 16q22 71 71 126
q61 69 147.5 98t175.5 11t159 -79q72 -64 100 -156q4 -13 4.5 -16t3.5 -16q5 -26 6 -47q3 -32 -2 -65zM924 281q-15 -14 -35 -17q4 36 2 71q-1 23 -7 51q24 -1 41 -19t17 -42q0 -25 -18 -44zM394 378q20 -3 36 9t19 32t-9.5 36t-32.5 19t-36 -9t-18.5 -32t9.5 -36t32 -19z
M602 378q20 -3 36 9.5t19 32t-9 36t-32 19t-36 -9.5t-19 -32t9 -36t32 -19zM714.5 304q-6.5 2 -12 -1.5t-7.5 -9.5q-20 -66 -67.5 -105.5t-108.5 -40.5h-1q-62 -1 -112.5 38t-72.5 105q-2 6 -8 9t-12.5 1t-9 -8t-0.5 -12q26 -76 84.5 -120.5t130.5 -44.5h2q72 2 127 47
t78 122q2 6 -1 12t-9.5 8z" />
    <glyph glyph-name="xiangji" unicode="&#xe61f;" horiz-adv-x="1025" 
d="M929 573h-147l-77 122h-384l-77 -122h-147q-30 0 -63 -25t-33 -65v-488q0 -36 28.5 -63.5t60.5 -27.5h841q33 0 63.5 28t30.5 62v488q0 28 -26.5 59.5t-69.5 31.5zM961 -6q0 -8 -11 -18.5t-19 -10.5h-841q-6 0 -15.5 9.5t-9.5 20.5v488q0 12 12.5 20.5t19.5 8.5h147h36
l19 30l58 92h314l57 -92l17 -30h37h147q10 0 18 -7.5t10.5 -13.5t3.5 -9v-488zM513 482q-93 0 -158.5 -62.5t-65.5 -150.5t65.5 -150.5t158.5 -62.5t158.5 62.5t65.5 150.5t-65.5 150.5t-158.5 62.5zM513 117q-66 0 -113 44.5t-47 107.5t47 107.5t113 44.5t113 -44.5
t47 -107.5t-47 -107.5t-113 -44.5z" />
    <glyph glyph-name="iconfontquan" unicode="&#xe6c8;" 
d="M78 431q0 27 9 38.5t40 11.5h128v-500h-55q-22 0 -43.5 0.5t-29.5 0.5q-27 -1 -38 9t-11 38v144q0 11 3.5 16.5t14.5 7.5q4 0 11 3t14 9.5t12 17t5 25.5q0 23 -12.5 36t-26.5 15q-11 2 -16 6.5t-5 15.5v106zM161 526v12v1v1v12q0 20 15.5 37t33.5 17h138v-80h-187z
M976 309q-8 -2 -11.5 -8.5t-3.5 -14.5t3.5 -15.5t11.5 -10.5t12.5 -12t5 -19t-2.5 -19t-9 -13q-20 -12 -20 -27t20 -30q4 -3 7.5 -11t3.5 -16t-4 -14t-14 -6h-54q-6 0 -6.5 1t1.5 3.5t5 5.5t5 7q5 14 0 24t-17 17q-8 4 -11.5 12.5t-3 17.5t3.5 16t9 10q8 3 12 11t4 17
t-3 16.5t-9 10.5q-8 4 -12.5 12t-4.5 18t4 19.5t13 15.5q6 4 10 11t4.5 15t-3 15.5t-12.5 12.5q-10 5 -14.5 14.5t-4.5 19.5t4.5 19t12.5 14q17 9 18.5 24.5t-2.5 28.5q-3 10 -12 18t-23 8h-480v79h563q7 0 12 -5t6.5 -12t-1 -14.5t-9.5 -12.5q-6 -5 -10.5 -13t-5 -16.5
t2.5 -17t11 -12.5q11 -6 16.5 -16.5t5.5 -21t-5.5 -19.5t-15.5 -13q-11 -4 -16 -11.5t-5.5 -16.5t4 -17.5t14.5 -14.5t14.5 -16t4 -20t-5 -18.5t-13.5 -9.5zM846 324q-12 -3 -18.5 -11.5t-7 -17.5t5 -18t16.5 -13q10 -4 15 -12t5.5 -17t-3.5 -17t-12 -12q-25 -12 -26 -29
t19 -27q9 -4 14.5 -12.5t6 -18t-3.5 -17t-13 -10.5q-12 -3 -18.5 -11t-7 -17t5 -18t17.5 -15q8 -4 11.5 -12.5t2.5 -16.5t-5.5 -14.5t-12.5 -6.5h-523v500h529q8 0 12.5 -6.5t5 -14.5t-3.5 -16t-13 -11t-14.5 -10t-6.5 -15.5t4 -16.5t17 -12q9 -4 14.5 -12t6 -16.5t-4 -16
t-14.5 -10.5zM605 257q-5 0 -10.5 1t-2.5 6q1 2 9.5 14t19 25.5t19.5 25.5t11 15q5 8 -6 19q-2 2 -8 6t-11 6q-8 3 -11.5 1t-8.5 -9q-2 -3 -10 -14.5t-17 -24.5t-16.5 -23.5t-8.5 -12.5q-2 -4 -7.5 -3t-7.5 5q-1 2 -9 11.5t-17 21.5t-17.5 22.5t-11.5 14.5q-9 17 -19 11
q-7 -4 -12.5 -8.5t-10.5 -7.5q-10 -7 -3 -18q17 -20 30 -37q11 -14 21 -27t12 -15q2 -4 -4 -4h-12q-5 0 -14.5 -0.5t-17.5 0.5q-8 0 -13 -4t-3 -10q1 -4 1 -12v-12q0 -5 3 -5.5t7 -0.5h58q12 0 12 -5v-19q0 -5 -2 -5h-5h-10h-20h-20h-12q-6 1 -8 -3t-3 -9t0 -9.5t1 -7.5
q0 -13 13 -13h60q5 0 6 -1.5t1 -6.5q1 -5 0.5 -18t-0.5 -17q0 -11 13 -11h32q8 0 8 5v7v33q0 10 9 10h9q7 0 15.5 0.5t16.5 0.5h13q14 0 14 10v22q0 9 -10 9h-58q-10 -2 -10 4q0 3 -0.5 7.5t-0.5 8.5t3.5 6t7.5 2h59q10 0 10 7v24q0 4 -3.5 8t-8.5 4h-34z" />
    <glyph glyph-name="gouwuche1" unicode="&#xe601;" 
d="M893 106h-543l-97 452l-60 277l42 9l56 -260l703 2zM384 148h475l82 395l-641 -1zM30 849h204v-43h-204v43zM716 21h101v-102h-101v102zM424 21h102v-102h-102v102zM499 443h244v-43h-244v43zM499 325h244v-42h-244v42z" />
    <glyph glyph-name="dianpu" unicode="&#xe610;" 
d="M847 280q-38 0 -68.5 20.5t-43.5 53.5q-14 -33 -44 -53.5t-67.5 -20.5t-67.5 20.5t-43 53.5q-14 -33 -44.5 -53.5t-68.5 -20.5q-37 0 -67 20.5t-44 53.5q-13 -33 -43.5 -53.5t-68.5 -20.5q-17 0 -34 5v-247q0 -18 15.5 -34.5t32.5 -16.5h642q17 0 32.5 16.5t15.5 34.5
v247q-17 -5 -34 -5zM879 671h-737l-77 -201q0 -45 33 -77t78 -32q47 0 80 32t33 77q0 -45 32.5 -77t78.5 -32t79 32t33 77q0 -45 32.5 -77t78.5 -32t78.5 32t32.5 77q0 -45 33 -77t79 -32t79.5 32t33.5 77zM844 672v0v0zM193 705h638q16 0 27 11t11 27t-11 27t-27 11h-638
q-16 0 -27 -11t-11 -27t11 -27t27 -11v0zM157 722z" />
    <glyph glyph-name="back2" unicode="&#xe615;" horiz-adv-x="1217" 
d="M130 356h1048q15 0 26.5 11.5t11.5 27t-11.5 26.5t-26.5 11h-1047l378 377q12 11 12 27t-11.5 27t-27.5 11t-27 -11l-444 -442q-11 -11 -11 -27t11 -27l444 -442q11 -11 27 -11t27 11t11.5 26.5t-11.5 26.5z" />
    <glyph glyph-name="sousuo" unicode="&#xe605;" 
d="M1019 -97l-289 288q53 58 82 131t29 153q0 114 -56.5 211t-153 153.5t-210.5 56.5t-211 -56.5t-153.5 -153.5t-56.5 -211t56.5 -210.5t153.5 -153t211 -56.5q80 0 153 29t131 82l288 -289q5 -5 12.5 -5t13 5.5t5.5 13t-5 12.5zM37 475.5q0 104.5 51.5 193t139.5 139.5
t192.5 51t193 -51t140 -139.5t51.5 -193t-51.5 -193t-140 -140t-193 -51.5t-192.5 51.5t-139.5 140t-51.5 193zM343 776q-82 -21 -142 -81t-81 -142q-2 -7 1.5 -13.5t11.5 -8.5q2 -1 4 -1q14 0 18 14q19 72 71.5 125t125.5 72q7 2 11 8.5t2 14t-8.5 11t-13.5 1.5z" />
    <glyph glyph-name="v2" unicode="&#xe614;" 
d="M871 -64h-144q11 26 30 47q21 23 61 51q68 47 86 63q36 34 36 82q0 52 -39 83q-39 30 -106 30q-78 0 -117 -46q-26 -29 -36 -82l74 -8q4 31 16 47q19 30 65 30q32 0 51 -15t19 -41q0 -34 -61 -76q-61 -40 -85 -62q-49 -45 -70 -100q-9 -25 -13 -66q23 3 66 3h164
q42 0 78 -3v68q-27 -4 -75 -5zM889 672h-413v-85h201v-50l-341 -429v788h-258v-85h166v-939z" />
    <glyph glyph-name="jiage" unicode="&#xe60e;" 
d="M532 464l208 207v1h-57l-171 -171l-170 171h-58v-1l208 -207v-1h-197v-40h197v-134h-197v-41h197v-170h40v170h197v41h-197v134h197v40h-197v1z" />
    <glyph glyph-name="check1" unicode="&#xe628;" 
d="M512 -212q-139 0 -257 68.5t-186.5 186.5t-68.5 257t68.5 257t186.5 186.5t257 68.5t257 -68.5t186.5 -186.5t68.5 -257t-68.5 -257t-186.5 -186.5t-257 -68.5zM512 771q-96 0 -183 -37.5t-150 -100.5t-100.5 -150t-37.5 -183t37.5 -183t100.5 -150t150 -100.5t183 -37.5
t183 37.5t150 100.5t100.5 150t37.5 183t-37.5 183t-100.5 150t-150 100.5t-183 37.5z" />
    <glyph glyph-name="tuiguang" unicode="&#xe619;" 
d="M511 747q-91 0 -173.5 -35.5t-142.5 -95t-95.5 -142.5t-35.5 -174q0 -106 48 -201q47 39 75 67q63 66 115 137.5t66 103.5q-15 66 -2 119t52 76q60 37 148.5 -13t153.5 -157.5t68.5 -209.5t-57.5 -138q-39 -23 -91 -10t-105 56q-75 2 -138 -12t-154 -51q-33 -14 -85 -40
q62 -81 154.5 -127t198.5 -46q91 0 173.5 35t142.5 95t95.5 142.5t35.5 173.5t-35.5 174t-95.5 142.5t-142.5 95t-173.5 35.5zM158 27q-27 34 -46 72zM715 104.5q54 32.5 51.5 124t-61 188t-138 141.5t-134 12.5t-51.5 -124t61.5 -188t138 -141.5t133.5 -12.5zM444 546.5
q49 29.5 120.5 -11.5t124 -128t55 -169t-46 -111.5t-120.5 11t-124.5 127.5t-55 169.5t46.5 112zM555 313l107 -4l1 21l-107 4v-1zM556 333v1v0l77 73l-14 15l-78 -74l14 -15h1zM519 457h21v-108h-21v108z" />
    <glyph glyph-name="dingdan1" unicode="&#xe62e;" 
d="M277 471h470q9 0 15 6t6 15t-6 15t-15 6h-470q-9 0 -15 -6t-6 -15t6 -15t15 -6zM277 343h470q9 0 15 6t6 15t-6 15t-15 6h-470q-9 0 -15 -6t-6 -15t6 -15t15 -6zM277 215h470q9 0 15 6t6 15t-6 15t-15 6h-470q-9 0 -15 -6t-6 -15t6 -15t15 -6zM277 87h470q9 0 15 6t6 15
t-6 15t-15 6h-470q-9 0 -15 -6t-6 -15t6 -15t15 -6zM347 734v0v0v0zM729 734v0v0v0zM832 769h-640q-26 0 -45 -18.5t-19 -45.5v-784q0 -27 19 -45.5t45 -18.5h393q60 -1 86 -22q5 -4 11 -4q8 0 14 6q4 6 3.5 13t-6.5 12q-36 29 -108 30h-393q-12 0 -20.5 8.5t-8.5 20.5v784
q0 12 8.5 20.5t20.5 8.5h155v0q33 -4 46 -33q2 -8 6 -17t18 -22t34 -16h1h172h2q19 3 33 16t18.5 22t6.5 17q12 29 45 33v0h103q12 0 20.5 -8.5t8.5 -20.5v-784q0 -12 -8.5 -20.5t-20.5 -8.5h-86q-7 0 -12 -5t-5 -12.5t5 -12.5t12 -5h86q26 0 45 18.5t19 45.5v784
q0 27 -19 45.5t-45 18.5zM651 714l-1 -2v-2q-1 -2 -2.5 -6.5t-9 -12.5t-17.5 -10h-166q-23 5 -28 29l-1 2v2q-5 11 -12 20h248q-7 -9 -11 -20z" />
    <glyph glyph-name="tianjia" unicode="&#xe61d;" 
d="M535 323v256h-46v-256h-256v-46h256v-256h46v256h256v46h-256zM512 -212q-139 0 -257 68.5t-186.5 186.5t-68.5 257t68.5 257t186.5 186.5t257 68.5t257 -68.5t186.5 -186.5t68.5 -257t-68.5 -257t-186.5 -186.5t-257 -68.5zM512 -165q95 0 181 36.5t148.5 99t99 148.5
t36.5 181t-36.5 181t-99 148.5t-148.5 99t-181 36.5t-181 -36.5t-148.5 -99t-99 -148.5t-36.5 -181t36.5 -181t99 -148.5t148.5 -99t181 -36.5z" />
    <glyph glyph-name="tianjia1" unicode="&#xe620;" 
d="M930 384v0l-418 -1l-1 419q0 12 -9 21t-21 9v0q-13 0 -22 -9t-9 -22v-418h-418q-12 0 -21 -9t-9 -21.5t9 -21.5t21 -9v0h418l1 -418q0 -13 9 -22t21 -9v0q13 0 22 9t9 22v418h418q12 0 21 9t9 22t-9 22t-21 9z" />
    <glyph glyph-name="check-b" unicode="&#xe629;" 
d="M512 879q-101 0 -192.5 -39.5t-157.5 -105.5t-105.5 -157.5t-39.5 -192.5t39.5 -192.5t105.5 -157.5t157.5 -105.5t192.5 -39.5t192.5 39.5t157.5 105.5t105.5 157.5t39.5 192.5t-39.5 192.5t-105.5 157.5t-157.5 105.5t-192.5 39.5v0zM796 512l-320 -320
q-11 -11 -26.5 -12.5t-28.5 5.5q-5 3 -8 7v0l-185 185q-13 13 -13 31.5t13 31.5t32 13t32 -13l152 -153l288 289q14 13 32.5 13t31.5 -13t13 -32t-13 -32v0zM796 512z" />
    <glyph glyph-name="11" unicode="&#xe61e;" 
d="M817 622h-436q-55 0 -92 -37.5t-37 -91.5v-448q0 -54 37 -91t92 -37h436q55 0 92 37t37 91v448q0 51 -37.5 90t-91.5 39v0zM890 45q0 -29 -21.5 -50.5t-51.5 -21.5h-436q-30 0 -51.5 21.5t-21.5 50.5v448q0 29 21.5 51t51.5 22h436q30 0 51.5 -22t21.5 -51v-448v0z
M890 45zM201 166h-22q-29 0 -51 22t-22 51v448q0 29 22 50.5t51 21.5h442q30 0 51.5 -21.5t21.5 -50.5v-17q0 -13 7.5 -20.5t20 -7.5t20.5 7.5t8 20.5v17q0 54 -37 91t-92 37h-442q-51 0 -90 -37.5t-39 -90.5v-448q0 -55 37.5 -92t91.5 -37h22q13 0 20.5 8t7.5 20.5t-7.5 20
t-20.5 7.5v0zM201 166zM803 298q-1 6 -6.5 12t-12.5 8l-7 1q-25 8 -38 31t-7 49l2 6q5 16 -8 27q-6 5 -24 15l-25 13q-16 6 -27 -6l-5 -5q-19 -18 -46 -18t-46 18l-4 5q-12 12 -27 6q-8 -2 -26 -13l-24 -15q-13 -11 -8 -27l2 -6q6 -26 -7 -49t-39 -31l-6 -1q-7 -2 -12.5 -8
t-6.5 -12q-2 -8 -2 -29l2 -28q1 -7 6.5 -13t12.5 -8l6 -1q26 -8 39 -31t7 -49l-2 -6q-5 -16 8 -27q6 -5 24 -15l26 -13q15 -6 27 6l4 5q19 18 46 18t46 -18l5 -5q11 -12 27 -6q7 3 25 13l24 15q13 11 8 27l-2 7q-6 25 7 48t39 31l6 1q7 2 12.5 8t6.5 12q2 9 2 29l-2 29v0v0z
M599 187q-34 0 -58 24t-24 58t24 58t58 24t58 -24t24 -58t-24 -58t-58 -24v0v0zM599 187z" />
    <glyph glyph-name="jiaruchengguo" unicode="&#xe603;" 
d="M931 351h-89v87q0 28 -20.5 48t-49 20t-48.5 -20t-20 -48v-87h-90q-28 0 -48.5 -19.5t-20.5 -47.5t20.5 -48t48.5 -20h90v-87q0 -28 20 -47.5t48.5 -19.5t49 19.5t20.5 47.5v87h89q28 0 48.5 20t20.5 48t-20.5 47.5t-48.5 19.5v0zM394 465q74 0 127 51.5t53 124.5
t-53 124.5t-127.5 51.5t-127 -51.5t-52.5 -124.5t52.5 -124.5t127.5 -51.5v0zM601 140q-3 0 -9 -0.5t-23 1t-32.5 5.5t-34 13.5t-31 24.5t-19.5 40t-5 57q7 83 95 108q-72 46 -152 46q-97 0 -179 -65t-129.5 -177.5t-47.5 -245.5v-27h712q1 13 1 27q0 18 -1 38
q-18 1 -35.5 4t-38 13.5t-36 26.5t-25.5 45t-10 66v0zM601 140z" />
    <glyph glyph-name="wodedingdan" unicode="&#xe611;" 
d="M661 -26h37q62 0 106 43.5t44 105.5v37h-187v-186v0zM810 832h-597q-31 0 -52.5 -22t-21.5 -53v-746q0 -31 21.5 -52.5t52.5 -21.5h373v298h299v522q0 31 -22 53t-53 22zM773 384h-522v75h522v-75zM773 608h-522v75h522v-75z" />
    <glyph glyph-name="bianji" unicode="&#xe60d;" 
d="M928 481q-9 0 -15.5 -6.5t-6.5 -15.5v-407q0 -19 -13.5 -32.5t-32.5 -13.5h-688q-19 0 -32 13.5t-13 32.5v663q0 19 13 32.5t32 13.5h443q10 0 16.5 7t6.5 16t-6.5 16t-16.5 7h-447q-36 0 -61.5 -25.5t-25.5 -61.5v-672q0 -37 25.5 -62t61.5 -25h696q36 0 61.5 25
t25.5 62v411q0 9 -6.5 15.5t-16.5 6.5v0v0zM503 188l435 436q20 19 18.5 48t-23.5 51l-41 41q-22 22 -51 23.5t-48 -17.5l-436 -436zM825 737q7 7 18.5 6.5t19.5 -8.5l41 -41q8 -8 8.5 -19t-6.5 -19l-48 -48l-81 81zM823 574l-324 -324l-81 80l325 325zM357 333l-45 -164
q-3 -12 5.5 -20.5t19.5 -5.5l164 45l-33 34l-107 -29l29 106zM357 333z" />
    <glyph glyph-name="icon103-copy" unicode="&#xe60a;" 
d="M824 361q-1 1 -8 1h-692q-7 0 -8 1t-1 8v29q0 7 6 6h5h690q7 0 8 1q-1 1 -5 6q-209 209 -312 311q-6 6 0 11q10 9 22 22q4 4 9 0q34 -34 151 -152q166 -166 217 -216q5 -5 0 -10q-170 -169 -368 -367q-5 -5 -9 0l-23 23q-4 4 -1 7l23 23q194 193 291 290z" />
    <glyph glyph-name="shangpin" unicode="&#xe607;" 
d="M773 685q-110 -9 -195 -15l-74 -6q-36 -3 -66 -5t-50.5 -3.5t-23.5 -1.5q-5 -1 -11 -1.5t-11 -2.5l-11 -4l-42 19q5 7 11 12q5 5 12 9t15 5q5 1 30 3q27 2 61 5q0 12 2 33.5t11 42t26 37t47 19.5q34 2 55 -11t33 -32.5t17 -40t5 -31.5q55 4 68 5q27 2 30 3q10 1 23 -4
t21 -13q1 -1 4.5 -5t6.5 -8q4 -4 6 -9v0zM511 797q-18 -2 -28.5 -12.5t-16.5 -26t-8 -31t-2 -24.5q30 2 60.5 4.5t60.5 4.5q-1 9 -4.5 24t-11 29t-20 23.5t-30.5 8.5v0zM881 102q5 -27 -1 -44.5t-35 -23.5q-9 -3 -41 -10t-75.5 -16t-94.5 -20q-50 -11 -96 -21
q-43 -9 -82 -17q-36 -7 -52 -10q-35 -8 -51.5 4.5t-16.5 37.5v581q0 23 10 38t29 16q8 0 18 1q10 0 22 1t25 2l9 -135q-1 -1 -4 -1q-2 0 -5.5 -0.5t-8.5 -0.5q-20 -2 -19 -24q1 -8 2 -23t1.5 -31.5t1.5 -32.5t2 -25q1 -18 5.5 -20.5t20.5 -2.5h13q6 0 11.5 0.5t11.5 1.5
q7 0 17 1q20 2 25.5 8.5t4.5 19.5q0 7 -1 24q-2 17 -3 34q-1 18 -2 34t-2 23q-2 11 -5 16t-10 4q-4 0 -8 -0.5t-7 -0.5h-8l-9 134q65 6 119 10q19 1 46 3q23 2 43 4q19 1 35 3q15 1 22 2q28 2 44 -9.5t20 -34.5q1 -7 7 -45q5 -38 14 -91q8 -53 18 -114q9 -60 18 -114
q8 -51 14 -91q6 -38 8 -45v0zM286 19q0 -13 1.5 -23t3.5 -15q2 -8 5 -12q-24 13 -46 25q-19 10 -38 21t-32 19q-25 14 -34 34t-4 41q2 6 8.5 42t16.5 87t21 109.5t20 110.5q10 51 17 88t8 43q4 21 14 32.5t23 5.5q8 -4 12 -8q3 -3 4 -5v-595v0zM286 19z" />
    <glyph glyph-name="check-copy" unicode="&#xe62a;" 
d="M512 5q-77 0 -147 30q-68 29 -120.5 81.5t-81.5 120.5q-30 70 -30 147t30 147q29 68 81.5 120.5t120.5 81.5q70 30 147 30t147 -30q68 -29 120.5 -81.5t81.5 -120.5q30 -70 30 -147t-30 -147q-29 -68 -81.5 -120.5t-120.5 -81.5q-70 -30 -147 -30zM512 722
q-92 0 -169.5 -45.5t-123 -123t-45.5 -169.5t45.5 -169.5t123 -123t169.5 -45.5t169.5 45.5t123 123t45.5 169.5t-45.5 169.5t-123 123t-169.5 45.5zM512 384v0v0v0v0z" />
    <glyph glyph-name="wo" unicode="&#xe609;" 
d="M913 81q-57 55 -145 98.5t-137 53.5q-5 9 -6 31q57 64 74 138q25 12 37 46q10 23 8 53.5t-18 50.5v2q16 145 -46 214q-56 62 -166 62t-166 -62q-62 -69 -47 -214v-1.5v-0.5q-16 -20 -17.5 -50.5t7.5 -53.5q13 -34 38 -46q17 -74 74 -138q-2 -22 -6 -31
q-51 -10 -140.5 -54.5t-145.5 -101.5v-6v0v-67v0v-38q0 -11 8 -19.5t20 -8.5h746q12 0 20 8.5t8 19.5v66v0v49z" />
    <glyph glyph-name="fenlei" unicode="&#xe62d;" 
d="M106.5 718q-17.5 0 -29.5 -12t-12 -29.5t12 -30t29.5 -12.5t29.5 12.5t12 30t-12 29.5t-29.5 12zM106.5 411q-17.5 0 -29.5 -12.5t-12 -30t12 -29.5t29.5 -12t29.5 12t12 29.5t-12 30t-29.5 12.5zM106.5 131q-17.5 0 -29.5 -12.5t-12 -29.5t12 -29.5t29.5 -12.5
t29.5 12.5t12 29.5t-12 29.5t-29.5 12.5zM946 718h-644q-5 0 -9.5 -4t-4.5 -10v-28q0 -5 4.5 -9.5t9.5 -4.5h644q5 0 9.5 4.5t4.5 9.5v28q0 6 -4.5 10t-9.5 4zM946 411h-644q-5 0 -9.5 -4.5t-4.5 -9.5v-28q0 -6 4.5 -10t9.5 -4h644q5 0 9.5 4t4.5 10v28q0 5 -4.5 9.5
t-9.5 4.5zM946 131h-644q-5 0 -9.5 -4t-4.5 -10v-28q0 -6 4.5 -10t9.5 -4h644q5 0 9.5 4t4.5 10v28q0 6 -4.5 10t-9.5 4z" />
    <glyph glyph-name="check2" unicode="&#xe62b;" 
d="M512 832q-91 0 -173.5 -35.5t-142.5 -95.5t-95.5 -142.5t-35.5 -173.5t35.5 -173.5t95.5 -142.5t142.5 -95.5t173.5 -35.5t174 35.5t142.5 95.5t95 142.5t35.5 173.5t-35.5 173.5t-95 142.5t-142.5 95.5t-174 35.5zM512.5 7q-102.5 0 -190 50.5t-138 137.5t-50.5 189.5
t50.5 190t138 138t190 50.5t189.5 -50.5t137.5 -138t50.5 -190t-50.5 -189.5t-137.5 -137.5t-189.5 -50.5z" />
    <glyph glyph-name="icon-search" unicode="&#xe604;" 
d="M73 677h250q11 24 26 48h-276q-10 0 -17 -7t-7 -17t7 -17t17 -7zM73 311h293q-18 24 -31 49h-262q-10 0 -17 -7.5t-7 -17.5t7 -17t17 -7zM853 -6h-780q-10 0 -17 -7t-7 -17.5t7 -17.5t17 -7h780q10 0 17.5 7t7.5 17.5t-7.5 17.5t-17.5 7zM997 165l-146 146q47 41 73.5 98
t26.5 121q0 121 -86 207t-207 86t-206.5 -86t-85.5 -207t85.5 -206.5t206.5 -85.5q83 0 154 43l150 -150q8 -7 18 -7t17 7t7 17t-7 17zM658 286q-101 0 -172.5 71.5t-71.5 172.5t71.5 172.5t172.5 71.5t172.5 -71.5t71.5 -172.5t-71.5 -172.5t-172.5 -71.5z" />
    <glyph glyph-name="arrow-down" unicode="&#xe617;" 
d="M464 159q-234 242 -358 371q-14 15 -15.5 32.5t8 31t23.5 22.5t32 7t32 -17q35 -37 146.5 -152t172.5 -178l152 152t179 180q14 14 32 16t32 -7t23.5 -22.5t8 -31t-15.5 -31.5q-122 -122 -371 -373q-16 -15 -40.5 -15.5t-40.5 15.5z" />
    <glyph glyph-name="dingwei" unicode="&#xe60c;" 
d="M512.5 439q-47.5 0 -81.5 34t-34 82t34 82.5t81.5 34.5t81.5 -34.5t34 -82.5t-34 -82t-81.5 -34zM512.5 640q-34.5 0 -59 -25t-24.5 -60t24.5 -59.5t59 -24.5t59 24.5t24.5 59.5t-24.5 60t-59 25zM512 31l-12 15q-13 15 -31.5 38.5t-62 86t-76.5 120.5t-59.5 129.5
t-26.5 125.5q0 116 78.5 198.5t190.5 82.5q110 0 189 -82.5t79 -198.5q1 -54 -26 -125.5t-60 -129.5t-76.5 -120t-62.5 -86t-32 -39l-12 -15v0zM513 795q-99 0 -168.5 -73t-69.5 -176q0 -55 28.5 -127.5t73.5 -143.5t75.5 -114.5t59.5 -79.5q29 36 60 79.5t76 114.5
t73.5 143.5t28.5 127.5q-1 103 -70.5 176t-166.5 73zM705 241v-31h63l64 -237h-634l63 237h48v31h-79l-79 -300h728l-79 300h-95z" />
    <glyph glyph-name="tuiguang1" unicode="&#xe602;" 
d="M178 421q-1 -27 5.5 -49t16.5 -35.5t24.5 -23t26 -14t25.5 -6.5t17.5 -2h7.5l4 -198l33 -21h90l22 27v184h62v296h-193q-6 -1 -15 -3t-32.5 -13.5t-42 -27t-34 -46t-17.5 -68.5v0zM553 579h59v-298h-59v298zM805 706q-11 -1 -48.5 -27t-69.5 -52l-32 -26v-346
q119 -80 144 -97q13 -9 21.5 -2t13 15t4.5 10v496q-1 3 -3.5 8.5t-11 13.5t-18.5 7v0z" />
    <glyph glyph-name="arrow-up" unicode="&#xe618;" 
d="M94 197l59 -60l360 357l356 -360l60 60l-416 420z" />
    <glyph glyph-name="jilu-copy" unicode="&#xe612;" horiz-adv-x="1076" 
d="M1053 580l-61 60q-12 12 -31.5 10.5t-34.5 -16.5l-452 -453q-15 -15 -17 -34.5t11 -31.5l60 -60q12 -13 31.5 -11t34.5 17l452 452q15 15 17 34.5t-10 32.5zM573 -1l2 -2l-188 -99h381q21 0 36 15t15 36v291l-233 -232q-1 -1 -13 -9v0zM408 140q7 18 17 28l394 392v285
q0 21 -15 36t-36 15h-717q-21 0 -36 -15t-15 -36v-896q0 -21 15 -36t36 -15h253l102 245zM128 819h538q21 0 36 -9t15 -22t-15 -22.5t-36 -9.5h-538q-21 0 -36 9.5t-15 22.5t15 22t36 9zM128 651h538q21 0 36 -10t15 -23.5t-15 -23.5t-36 -10h-538q-21 0 -36 10t-15 23.5
t15 23.5t36 10zM128 410q-21 0 -36 10t-15 24t15 24t36 10h333q21 0 36 -10t15 -24t-15 -24t-36 -10h-333zM417 111l-96 -223l215 110z" />
    <glyph glyph-name="wubanhua" unicode="&#xe600;" 
d="M662 718q0 -75 -139 -301l-11 -18q-6 10 -16.5 26.5t-36.5 61.5t-45.5 84t-36 81.5t-16.5 65.5q0 63 44 107t106.5 44t106.5 -44t44 -107zM208 601q35 -12 100 -73.5t110 -113t47 -55.5q-6 -2 -15.5 -4.5t-39.5 -9t-58 -12.5t-65.5 -12t-68 -9.5t-59 -3t-44.5 5.5
q-59 19 -87.5 75t-9 115t75 87.5t114.5 9.5zM168 138q21 30 101.5 73.5t138 68t69.5 28.5q-1 -11 -2 -30.5t-6.5 -71.5t-12.5 -95t-19 -87t-25 -63q-37 -50 -99 -60t-112.5 27t-60 98.5t27.5 111.5zM602 -39q-22 30 -38 120t-21.5 152.5t-5.5 74.5q10 -4 28 -11.5
t65.5 -28.5t86.5 -41t77 -45t52 -44q37 -50 27 -111.5t-60.5 -98.5t-112 -27t-98.5 60zM909 314q-35 -11 -122.5 0t-157.5 28l-70 17q7 9 19.5 23.5t47.5 53.5t66 69.5t66.5 59.5t57.5 36q59 19 114.5 -9.5t75 -87.5t-9 -115t-87.5 -75z" />
    <glyph glyph-name="xiangji1" unicode="&#xe62f;" horiz-adv-x="1040" 
d="M875 -128h-727q-61 0 -104.5 43.5t-43.5 104.5v403q0 46 25 83t66 54q-3 3 -3 8q18 47 27 47h98q8 0 34 -44h60q3 5 7 13t16 28t22.5 35.5t22.5 28t20 12.5h322q13 0 31 -29t30 -59l12 -29h85q62 0 105.5 -43.5t43.5 -104.5v-403q0 -61 -43.5 -104.5t-105.5 -43.5v0z
M161 426q24 0 41 17t17 41t-17 41t-41 17t-41.5 -17t-17.5 -41t17.5 -41t41.5 -17v0zM556 528q-115 0 -196.5 -81.5t-81.5 -196t81.5 -195.5t196.5 -81t196 81t81 195.5t-81 196t-196 81.5v0zM556 61q-79 0 -134.5 55.5t-55.5 134t55.5 134t134 55.5t134.5 -55.5t56 -134
t-56 -134t-134 -55.5v0zM556 61z" />
    <glyph glyph-name="shuoming-copy-copy" unicode="&#xe6a8;" 
d="M722 669v-571q0 -43 -30.5 -73.5t-73.5 -30.5h-392q-43 0 -73.5 30.5t-30.5 73.5v572q0 43 30.5 73.5t73.5 30.5h392q43 0 73.5 -30.5t30.5 -73.5v-1zM722 -50v-16h120q49 0 84.5 35.5t35.5 84.5v480q0 50 -35.5 85t-84.5 35h-60v60q0 49 -35 84.5t-85 35.5h-480
q-49 0 -84.5 -35.5t-35.5 -84.5v-660q0 -49 35.5 -84.5t84.5 -35.5h480q32 0 60 16zM902 98q0 -43 -30.5 -73.5t-73.5 -30.5h-32q16 28 16 60v540h16q43 0 73.5 -30.5t30.5 -73.5v-1v-391zM242 189q0 -7 4 -10.5t8.5 -4t13.5 -0.5h4h300h4q9 0 13.5 0.5t8.5 4t4 10.5
q0 14 -9 29.5t-21 15.5h-300q-11 0 -20.5 -15.5t-9.5 -29.5zM242 369q0 -7 4 -10.5t8.5 -4t13.5 -0.5h4h300h4q9 0 13.5 0.5t8.5 4t4 10.5q0 14 -9 29.5t-21 15.5h-300q-11 0 -20.5 -15.5t-9.5 -29.5zM242 549q0 -7 4 -10.5t8.5 -4t13.5 -0.5h4h300h4q9 0 13.5 0.5t8.5 4
t4 10.5q0 14 -9 29.5t-21 15.5h-300q-11 0 -20.5 -15.5t-9.5 -29.5z" />
    <glyph glyph-name="wenhao" unicode="&#xe631;" 
d="M506 831q-91 -1 -173.5 -37.5t-141.5 -97.5t-93 -144t-33 -174t37.5 -173.5t97.5 -141.5t144 -93t174 -33t173.5 37.5t141.5 97.5t93 144t33 174t-37.5 173.5t-97.5 141.5t-144 93t-174 33zM518 -33.5q-113 -1.5 -210 53t-154.5 150t-59 208.5t53 210t150 154.5t208.5 59
t210 -53t154.5 -150t59 -208.5t-53 -210t-150 -154.5t-208.5 -59zM619 596q-39 34 -108 34q-65 0 -105 -41q-36 -38 -39 -99h24q3 50 31 83q33 38 88 38t88 -29t33 -73q0 -36 -36 -77q-35 -34 -65 -63q-19 -20 -27 -44q-8 -22 -9 -72h22q0 26 2 41q3 20 14 39q9 13 81 84
q44 44 44 89q0 57 -38 90zM503 194q-12 0 -21 -9t-9 -21.5t9 -21t21 -8.5t21 8.5t9 21t-9 21.5t-21 9z" />
    <glyph glyph-name="duihao" unicode="&#xe60b;" 
d="M921 673l-534 -489l-287 242l-37 -37l324 -325l1 1v0l571 571z" />
    <glyph glyph-name="outdate" unicode="&#xe634;" 
d="M289 561l15 -20l2 25l24 7l-22 10l-2 26l-16 -17l-25 8l12 -23l-14 -20zM443 638l17 18l23 -11l-11 22l16 21l-24 -3l-13 22l-5 -25l-23 -6l22 -14zM207 457l23 11l20 -14l-7 24l20 15l-24 2l-10 24l-9 -22l-26 -1l19 -17zM278 416l15 9q7 48 34 88.5t70.5 66t93 29
t92.5 -13.5l16 9q-48 22 -104 19t-104.5 -31.5t-78 -75t-34.5 -100.5zM546 647l22 11l18 -18l-2 25l21 13l-22 6l-6 25l-13 -22l-24 3l16 -21zM752 345l-15 -9q-8 -48 -35 -88.5t-70.5 -66t-93 -29.5t-92.5 13l-16 -9q48 -21 104 -18t105 31.5t78.5 75t34.5 100.5zM350 633
l6 -23l11 22l24 -2l-17 17l8 25l-22 -11l-20 16l4 -25l-19 -14zM745 204l-14 20l-2 -25l-24 -7l22 -10l1 -26l17 18l24 -8l-12 22l14 19zM820 315l-22 -12l-20 13l6 -23l-20 -15l24 -2l10 -24l10 22l25 1l-19 17zM898.5 611q-61.5 105 -165.5 163.5t-223 58t-224 -62
t-164 -165.5t-58.5 -223t62 -224t165.5 -163.5t223 -58t224 62t164 165t58.5 223t-62 224.5zM722 27q-97 -57 -207.5 -57.5t-207 53.5t-153.5 151.5t-57.5 208t54 206.5t151.5 153t207.5 57.5t207 -54t153.5 -151.5t57.5 -207.5t-54 -206.5t-151.5 -153zM841.5 577.5
q-52.5 89.5 -141 139.5t-190.5 49.5t-191 -53t-139 -141t-50 -190t52.5 -191t141 -139.5t190.5 -49.5t191 52.5t139 141t50 190.5t-52.5 191zM700 63q-87 -51 -186 -51.5t-185.5 48.5t-137.5 136t-51.5 186.5t48.5 185.5t136 137t186 51.5t185.5 -48t137.5 -136t51.5 -186.5
t-48.5 -185.5t-136 -137.5zM490 106l-22 -11l-18 18l2 -24l-21 -14l23 -6l5 -25l13 22l24 -3l-16 21zM673 151l-10 -22l-25 1l17 -17l-7 -24l21 10l20 -15l-4 25l20 13l-25 6zM593 126l-18 -18l-23 10l10 -22l-16 -21l25 2l13 -22l6 26l23 6l-22 14zM440 248q-5 14 -13 32
q0 -1 -3 -1q-14 -4 -23 -6q2 -5 7 -15q3 -8 5 -12q8 -21 -14 -32l-83 -48q-19 -13 -30 8l-27 45l130 76l-52 89l-157 -93l12 -21l135 80l28 -48l-107 -63l-15 25l-23 -14l56 -96q19 -32 53 -11l98 57q34 18 23 48zM459 398l76 45l39 -65q11 -16 -6 -24q-17 -10 -28 -16
q5 -4 13 -13q2 -3 4 -5q20 11 30 18q31 18 11 49l-40 69l28 17l-11 19l-28 -17l-20 34l-22 -13l19 -34l-76 -45zM485 229q2 19 9 44q32 -13 65 8q60 33 100 57q-2 13 -4 24q-33 -21 -102 -61q-29 -17 -60 -4l-45 77l-43 -26l12 -21l23 14l33 -57q-7 -28 -11 -39zM476 379
q6 -2 16 -5q26 -10 38 -15l10 23q-22 8 -54 18zM394 430l-12 -20l6 -3q30 -14 42 -22l13 23q-27 13 -49 22zM696 353q6 23 12 52l-23 1q-3 -19 -12 -49q5 0 23 -4zM605 553l-20 -12l12 -20l-13 -8l11 -17l12 7l51 -87l-15 -8l10 -18l106 62l-11 17l-15 -9l-51 87l13 8
l-10 17l-13 -7l-12 21l-20 -12l12 -21l-35 -20zM713 449l-35 -21l-11 18l36 21zM682 501l11 -18l-35 -21l-11 19zM662 536l11 -19l-35 -20l-11 18zM851 475l-94 160l-72 -42l48 -81q36 -58 31 -91q-17 3 -39 9l-7 -20l18 -6q14 -4 21 -7l7 18v-3q-1 -3 -1 -4q2 0 6 -1
q12 -1 19 -2q5 40 -14 78l34 20l20 -33q6 -10 -6 -15q-7 -5 -18 -10q2 -3 8 -8q6 -7 8 -9q4 2 12 8q9 5 12 7q19 12 7 32zM717 585l32 19l19 -32l-32 -19zM764 502q-4 10 -10 20l-7 13l31 18l19 -32z" />
    <glyph glyph-name="shouruxiangqing" unicode="&#xe613;" 
d="M404 516q0 -21 -15.5 -36t-36.5 -15h-297q-21 0 -36 15t-15 36v297q0 21 15 36t36 15h297q21 0 36.5 -15t15.5 -36v-297zM404 -45q0 -21 -15.5 -36t-36.5 -15h-297q-21 0 -36 15t-15 36v297q0 21 15 36t36 15h297q21 0 36.5 -15t15.5 -36v-297zM1020 740q0 -10 -8 -17
t-19 -7h-488q-11 0 -19 7t-8 17v100q0 10 8 17t19 7h488q11 0 19 -7t8 -17v-100zM1020 489q0 -10 -8 -17t-19 -7h-488q-11 0 -19 7t-8 17v100q0 10 8 17t19 7h488q11 0 19 -7t8 -17v-100zM1020 179q0 -10 -8 -17t-19 -7h-488q-11 0 -19 7t-8 17v100q0 10 8 17t19 7h488
q11 0 19 -7t8 -17v-100zM1020 -72q0 -10 -8 -17t-19 -7h-488q-11 0 -19 7t-8 17v100q0 10 8 17t19 7h488q11 0 19 -7t8 -17v-100z" />
    <glyph glyph-name="yishiyong1" unicode="&#xe633;" 
d="M507 143q-85 0 -151 55l-10 -13q70 -57 161 -57t161.5 58.5t88.5 147.5l-17 3q-16 -84 -82 -139t-151 -55zM668 578q-70 57 -161 57t-161.5 -58.5t-88.5 -147.5l16 -3q16 84 82 138t152 54q85 0 150 -54zM811 205l-16 14l-7 -22l-20 -13l19 -12l5 -22l18 14l23 -2
q-55 -80 -140.5 -127t-184.5 -47q-106 0 -196.5 52t-142.5 142.5t-52 196.5t52 196t142.5 142.5t196.5 52.5t196 -52.5t142.5 -142.5t52.5 -196q0 -117 -65 -217l-8 20l11 22zM507 791q-111 0 -205.5 -55t-149.5 -149.5t-55 -205.5t55 -205.5t149.5 -149.5t205.5 -55
t205.5 55t149 149.5t54.5 205.5t-55 205.5t-149 149.5t-205 55zM506.5 -75q-92.5 0 -176.5 36.5t-145 97.5t-97.5 145.5t-36.5 176.5t36.5 176.5t97.5 145.5t145 97.5t176.5 36.5t177 -36.5t145.5 -97t97.5 -145t36.5 -177.5q0 -92 -36.5 -176.5t-97.5 -145.5t-145.5 -97.5
t-177 -36.5zM507 869q-99 0 -189.5 -38.5t-156 -104t-104.5 -156t-39 -189.5t39 -189.5t104.5 -156t156 -104.5t189.5 -39t189.5 39t156 104.5t104 156t38.5 189.5t-38.5 189.5t-104 156t-156 104t-189.5 38.5zM365 94l-17 17l-7 -22l-20 -10l18 -14l4 -23l18 13l23 -4
l-7 23l10 20h-22zM538 69l-23 -7l-20 12v-23l-17 -15l23 -8l10 -21l13 18l23 3l-12 18zM681 109l-17 -15l-24 2l9 -20l-9 -21l24 2l17 -14l5 22l21 11l-21 11zM239 551l16 -16l8 21l22 10l-19 14l-3 22l-19 -13l-23 3l6 -22l-11 -20zM481 687l23 6l21 -11v23l17 15l-23 8
l-11 21l-13 -18l-24 -3l14 -18zM666 660l16 -16l7 22l21 10l-20 14l-4 23l-18 -14l-23 4l7 -22l-10 -21h24zM337 636l18 14l24 -2l-9 21l9 20l-24 -2l-18 14l-5 -20l-21 -11l21 -12zM378 325l-125 -45l20 -57q5 -11 16 -7l101 37q5 1 8 7q4 7 -7 39l22 1q10 -40 5.5 -49
t-16.5 -14l-112 -40q-26 -10 -35 17l-38 105l20 8l10 -28l105 38l-17 47l-134 -48l-6 18l153 56zM434 360q-5 -14 -10 -26l-13 18q17 48 14 99l21 -2q2 -25 -3 -52l49 -137l-20 -7zM452 436l51 19l-7 19l19 7l7 -19l55 19l6 -18l-55 -20l7 -16l47 16l21 -60l-48 -17
q7 -28 5 -43q35 -5 73 7l2 -21q-43 -12 -80 -6q-10 -20 -44 -39l-14 15q26 11 38 28q-23 7 -40 19l11 15q17 -11 35 -15q0 13 -3 31l-46 -13l-22 60l45 17l-6 16l-51 -18zM530 377l-9 25l-27 -10l9 -25zM579 394l-10 26l-28 -10l9 -26zM668 396q10 -39 0 -71l-20 8
q9 32 -5 73l-36 99l156 56l55 -152q8 -23 -15 -32l-24 -8l-12 17q3 1 23 7q9 3 6 16l-12 29l-50 -18l21 -58l-20 -7l-20 58zM680 511l-47 -16l11 -31l47 16zM650 446l12 -30l47 16l-12 31zM761 506l-11 31l-51 -19l12 -31zM778 457l-11 30l-50 -17l11 -31z" />
    <glyph glyph-name="fuxuankuangxuanzeqian" unicode="&#xe632;" 
d="M791 -28h-558q-56 0 -96 39.5t-40 96.5v558q0 56 40 96t96 40h558q57 0 96.5 -40t39.5 -96v-558q0 -57 -39.5 -96.5t-96.5 -39.5zM233 754q-36 0 -62 -26t-26 -62v-558q0 -37 26 -62.5t62 -25.5h558q37 0 62.5 25.5t25.5 62.5v558q0 36 -25.5 62t-62.5 26h-558z" />
    <glyph glyph-name="fuxuankuangxuanzehou" unicode="&#xe635;" 
d="M789 -30h-559q-56 0 -95.5 39.5t-39.5 96.5v558q0 56 39.5 96t95.5 40h559q56 0 96 -40t40 -96v-558q0 -57 -40 -96.5t-96 -39.5zM230 752q-36 0 -61.5 -26t-25.5 -62v-558q0 -37 25.5 -62.5t61.5 -25.5h559q36 0 62 25.5t26 62.5v558q0 36 -26 62t-62 26h-559zM791 536
l-46 47q-11 11 -22 0l-234 -253l-135 139q-5 5 -12 5t-11 -5l-46 -47q-11 -11 0 -23l192 -197q3 -3 6 -4q3 -2 8 -2q6 0 11 5l43 47l1 1q1 0 1 1l244 263q11 12 0 23z" />
  </font>
</defs>
</svg>
